<svg class="icon icon-cart" xmlns="http://www.w3.org/2000/svg" width="22" height="22" viewBox="0 0 22 22" fill="none">
<path d="M5.17578 1.29688L2.26562 5.17708V18.7578C2.26563 19.2724 2.47003 19.7658 2.83387 20.1297C3.19771 20.4935 3.69118 20.6979 4.20573 20.6979H17.7865C18.301 20.6979 18.7945 20.4935 19.1583 20.1297C19.5222 19.7658 19.7266 19.2724 19.7266 18.7578V5.17708L16.8164 1.29688H5.17578Z" stroke="#424242" stroke-width="2" stroke-linecap="round" stroke-linejoin="round"/>
<path d="M2.75 5.5H19.25" stroke="#424242" stroke-width="2" stroke-linecap="round" stroke-linejoin="round"/>
<path d="M14.6693 9.16406C14.6693 10.1365 14.283 11.0692 13.5953 11.7568C12.9077 12.4444 11.9751 12.8307 11.0026 12.8307C10.0301 12.8307 9.09751 12.4444 8.40988 11.7568C7.72225 11.0692 7.33594 10.1365 7.33594 9.16406" stroke="#424242" stroke-width="2" stroke-linecap="round" stroke-linejoin="round"/>
</svg>