<svg class="custom-icon-play" width="88" height="86" viewBox="0 0 88 86" fill="none" xmlns="http://www.w3.org/2000/svg">
<path d="M44.0013 85.7127C20.069 85.7127 0.667969 66.6414 0.667969 43.1161C0.667969 19.5907 20.069 0.519531 44.0013 0.519531C67.9334 0.519531 87.3346 19.5907 87.3346 43.1161C87.3346 66.6414 67.9334 85.7127 44.0013 85.7127ZM44.0013 77.1934C63.1473 77.1934 78.668 61.9366 78.668 43.1161C78.668 24.2958 63.1473 9.03885 44.0013 9.03885C24.8554 9.03885 9.33464 24.2958 9.33464 43.1161C9.33464 61.9366 24.8554 77.1934 44.0013 77.1934ZM38.0295 27.8435L59.1714 41.6985C59.9679 42.2203 60.1833 43.2784 59.652 44.0614C59.525 44.2484 59.3617 44.4089 59.1714 44.5338L38.0295 58.3887C37.2331 58.911 36.1567 58.6993 35.6258 57.9163C35.436 57.6365 35.3346 57.3076 35.3346 56.9711V29.2612C35.3346 28.3202 36.1107 27.5573 37.068 27.5573C37.4103 27.5573 37.7448 27.6569 38.0295 27.8435Z" fill="#FFCE00"/>
</svg>