<svg class="icon icon-account" width="18" height="20" viewBox="0 0 18 20" fill="none" xmlns="http://www.w3.org/2000/svg">
    <path fill-rule="evenodd" clip-rule="evenodd" d="M8.55 2.33871C7.08454 2.33871 5.89655 3.57354 5.89655 5.09677C5.89655 6.62001 7.08454 7.85484 8.55 7.85484C10.0155 7.85484 11.2034 6.62001 11.2034 5.09677C11.2034 3.57354 10.0155 2.33871 8.55 2.33871ZM4.12759 5.09677C4.12759 2.55805 6.10757 0.5 8.55 0.5C10.9924 0.5 12.9724 2.55805 12.9724 5.09677C12.9724 7.6355 10.9924 9.69355 8.55 9.69355C6.10757 9.69355 4.12759 7.6355 4.12759 5.09677Z" fill="#424242"/>
    <path fill-rule="evenodd" clip-rule="evenodd" d="M1.77184 14.1218C3.11553 12.6296 5.28096 11.5323 8.55 11.5323C11.819 11.5323 13.9845 12.6296 15.3282 14.1218C16.6487 15.5882 17.1 17.3536 17.1 18.5806C17.1 19.0884 16.704 19.5 16.2155 19.5H0.884483C0.395996 19.5 0 19.0884 0 18.5806C0 17.3536 0.451287 15.5882 1.77184 14.1218ZM1.87959 17.6613H15.2204C15.0578 16.9469 14.6992 16.114 14.0367 15.3782C13.0807 14.3166 11.4134 13.371 8.55 13.371C5.68662 13.371 4.0193 14.3166 3.06333 15.3782C2.40075 16.114 2.04218 16.9469 1.87959 17.6613Z" fill="#424242"/>
</svg>
    