<svg xmlns="http://www.w3.org/2000/svg" viewBox="0 0 32 32" width="34px" height="34px">
  <path d="M16 6c-3.77 0-7.1.39-9.13.69-1.68.25-3.03 1.52-3.34 3.19C3.27 11.3 3 13.39 3 16s.27 4.7.53 6.13c.31 1.67 1.66 2.94 3.34 3.19C8.91 25.61 12.25 26 16 26s7.09-.39 9.13-.69c1.68-.25 3.03-1.52 3.34-3.19.26-1.43.53-3.52.53-6.13s-.27-4.7-.53-6.13c-.31-1.67-1.66-2.94-3.34-3.19C23.09 6.39 19.75 6 16 6zm0 2c3.63 0 6.88.37 8.84.66.85.12 1.51.77 1.66 1.59.24 1.32.5 3.28.5 5.75s-.26 4.43-.5 5.75c-.15.82-.81 1.47-1.66 1.59-1.97.29-5.22.66-8.84.66s-6.88-.37-8.84-.66c-.85-.12-1.51-.77-1.66-1.59C5.26 20.43 5 18.47 5 16s.26-4.43.5-5.75c.15-.82.81-1.47 1.66-1.59C9.12 8.37 12.37 8 16 8zm-3 2.28v11.44l1.5-.84 7-4 1.5-.88-1.5-.88-7-4zM15 13.72L18.97 16 15 18.28z"/>
</svg>
