<!-- <svg xmlns="http://www.w3.org/2000/svg" fill="none" class="icon icon-play" viewBox="0 0 10 14"><path fill="currentColor" fill-rule="evenodd" d="M1.482.815A1 1 0 0 0 0 1.69v10.517a1 1 0 0 0 1.525.851L10.54 7.5a1 1 0 0 0-.043-1.728z" clip-rule="evenodd"/></svg> -->

<svg width="88" height="86" viewBox="0 0 88 86" fill="none" xmlns="http://www.w3.org/2000/svg">
<path d="M43.9994 85.8417C20.067 85.8417 0.666016 66.7703 0.666016 43.245C0.666016 19.7196 20.067 0.648438 43.9994 0.648438C67.9315 0.648438 87.3327 19.7196 87.3327 43.245C87.3327 66.7703 67.9315 85.8417 43.9994 85.8417ZM43.9994 77.3223C63.1453 77.3223 78.666 62.0655 78.666 43.245C78.666 24.4247 63.1453 9.16776 43.9994 9.16776C24.8535 9.16776 9.33268 24.4247 9.33268 43.245C9.33268 62.0655 24.8535 77.3223 43.9994 77.3223ZM38.0276 27.9724L59.1695 41.8274C59.966 42.3492 60.1813 43.4073 59.6501 44.1903C59.5231 44.3773 59.3597 44.5379 59.1695 44.6627L38.0276 58.5176C37.2311 59.0399 36.1547 58.8282 35.6239 58.0452C35.4341 57.7654 35.3327 57.4365 35.3327 57.1V29.3901C35.3327 28.4491 36.1088 27.6863 37.066 27.6863C37.4083 27.6863 37.7429 27.7858 38.0276 27.9724Z" fill="#FFCE00"/>
</svg>
