<svg width="19" height="18" viewBox="0 0 19 18" fill="none" xmlns="http://www.w3.org/2000/svg">
<path d="M14.3671 17.6383C14.1571 17.6383 13.9861 17.4679 13.9861 17.2579V11.4763C13.9861 9.38594 12.9132 9.38594 12.5089 9.38594C11.3821 9.38594 10.8115 10.0891 10.8115 11.4763V17.2585C10.8115 17.4685 10.6411 17.6389 10.4311 17.6389H7.16165C6.95165 17.6389 6.78125 17.4685 6.78125 17.2585V6.24434C6.78125 6.03434 6.95165 5.86394 7.16165 5.86394H10.4316C10.6416 5.86394 10.8121 6.03434 10.8121 6.24434V6.65474L11.0089 6.49214C11.7828 5.85194 12.7063 5.52734 13.7533 5.52734C15.0475 5.52734 16.1371 5.94074 16.9039 6.72374C17.7139 7.55054 18.1417 8.78174 18.1417 10.2835V17.2585C18.1417 17.4685 17.9707 17.6389 17.7607 17.6389L14.3671 17.6383ZM12.5095 8.62394C13.3459 8.62394 14.7487 8.99474 14.7487 11.4763V16.8775H17.3797V10.2835C17.3797 7.74494 16.0579 6.28934 13.7533 6.28934C11.6953 6.28934 10.8037 7.84334 10.7665 7.90934C10.6993 8.03114 10.5721 8.10674 10.4334 8.10674C10.4023 8.10674 10.3704 8.10194 10.338 8.09414C10.1688 8.05154 10.0507 7.90094 10.0507 7.72814V6.62594H7.54265V16.8781H10.0507V11.4763C10.0507 9.69014 10.9699 8.62394 12.5095 8.62394Z"/>
<path d="M1.5685 17.6377C1.3585 17.6377 1.1875 17.4673 1.1875 17.2573V6.24368C1.1875 6.03368 1.3585 5.86328 1.5685 5.86328H4.9795C5.1895 5.86328 5.3599 6.03368 5.3599 6.24368V17.2573C5.3599 17.4673 5.1895 17.6377 4.9795 17.6377H1.5685ZM1.9495 16.8769H4.5985V6.62468H1.9495V16.8769Z" />
<path d="M3.25758 5.18278C1.93518 5.18278 0.859375 4.10098 0.859375 2.77138C0.859375 1.44117 1.93518 0.359375 3.25758 0.359375C4.57818 0.359375 5.65338 1.44178 5.65338 2.77198C5.65338 4.10098 4.57818 5.18278 3.25758 5.18278ZM3.25758 1.11898C2.35518 1.11898 1.62138 1.85997 1.62138 2.77138C1.62138 3.68218 2.35518 4.42198 3.25758 4.42198C4.15938 4.42198 4.89257 3.68218 4.89257 2.77138C4.89197 1.86058 4.15938 1.11898 3.25758 1.11898Z" />
</svg>
