<svg width="18" height="19" viewBox="0 0 18 19" fill="none" xmlns="http://www.w3.org/2000/svg">
<g clip-path="url(#clip0_527_1832)">
<path d="M4.36548 9.50391C4.21629 9.50391 4.07322 9.56317 3.96773 9.66866C3.86224 9.77415 3.80298 9.91722 3.80298 10.0664C3.80298 10.2156 3.86224 10.3587 3.96773 10.4642C4.07322 10.5696 4.21629 10.6289 4.36548 10.6289H4.74048C4.88966 10.6289 5.03274 10.5696 5.13823 10.4642C5.24372 10.3587 5.30298 10.2156 5.30298 10.0664C5.30298 9.91722 5.24372 9.77415 5.13823 9.66866C5.03274 9.56317 4.88966 9.50391 4.74048 9.50391H4.36548ZM3.80298 7.44141C3.80298 7.29222 3.86224 7.14915 3.96773 7.04366C4.07322 6.93817 4.21629 6.87891 4.36548 6.87891H4.74048C4.88966 6.87891 5.03274 6.93817 5.13823 7.04366C5.24372 7.14915 5.30298 7.29222 5.30298 7.44141C5.30298 7.59059 5.24372 7.73366 5.13823 7.83915C5.03274 7.94464 4.88966 8.00391 4.74048 8.00391H4.36548C4.21629 8.00391 4.07322 7.94464 3.96773 7.83915C3.86224 7.73366 3.80298 7.59059 3.80298 7.44141ZM4.36548 4.25391C4.21629 4.25391 4.07322 4.31317 3.96773 4.41866C3.86224 4.52415 3.80298 4.66722 3.80298 4.81641C3.80298 4.96559 3.86224 5.10866 3.96773 5.21415C4.07322 5.31964 4.21629 5.37891 4.36548 5.37891H4.74048C4.88966 5.37891 5.03274 5.31964 5.13823 5.21415C5.24372 5.10866 5.30298 4.96559 5.30298 4.81641C5.30298 4.66722 5.24372 4.52415 5.13823 4.41866C5.03274 4.31317 4.88966 4.25391 4.74048 4.25391H4.36548ZM6.42798 10.0664C6.42798 9.91722 6.48724 9.77415 6.59273 9.66866C6.69822 9.56317 6.84129 9.50391 6.99048 9.50391H7.36548C7.51466 9.50391 7.65774 9.56317 7.76323 9.66866C7.86871 9.77415 7.92798 9.91722 7.92798 10.0664C7.92798 10.2156 7.86871 10.3587 7.76323 10.4642C7.65774 10.5696 7.51466 10.6289 7.36548 10.6289H6.99048C6.84129 10.6289 6.69822 10.5696 6.59273 10.4642C6.48724 10.3587 6.42798 10.2156 6.42798 10.0664ZM6.99048 6.87891C6.84129 6.87891 6.69822 6.93817 6.59273 7.04366C6.48724 7.14915 6.42798 7.29222 6.42798 7.44141C6.42798 7.59059 6.48724 7.73366 6.59273 7.83915C6.69822 7.94464 6.84129 8.00391 6.99048 8.00391H7.36548C7.51466 8.00391 7.65774 7.94464 7.76323 7.83915C7.86871 7.73366 7.92798 7.59059 7.92798 7.44141C7.92798 7.29222 7.86871 7.14915 7.76323 7.04366C7.65774 6.93817 7.51466 6.87891 7.36548 6.87891H6.99048ZM6.42798 4.81641C6.42798 4.66722 6.48724 4.52415 6.59273 4.41866C6.69822 4.31317 6.84129 4.25391 6.99048 4.25391H7.36548C7.51466 4.25391 7.65774 4.31317 7.76323 4.41866C7.86871 4.52415 7.92798 4.66722 7.92798 4.81641C7.92798 4.96559 7.86871 5.10866 7.76323 5.21415C7.65774 5.31964 7.51466 5.37891 7.36548 5.37891H6.99048C6.84129 5.37891 6.69822 5.31964 6.59273 5.21415C6.48724 5.10866 6.42798 4.96559 6.42798 4.81641ZM9.61548 9.50391C9.46629 9.50391 9.32322 9.56317 9.21773 9.66866C9.11224 9.77415 9.05298 9.91722 9.05298 10.0664C9.05298 10.2156 9.11224 10.3587 9.21773 10.4642C9.32322 10.5696 9.46629 10.6289 9.61548 10.6289H9.99048C10.1397 10.6289 10.2827 10.5696 10.3882 10.4642C10.4937 10.3587 10.553 10.2156 10.553 10.0664C10.553 9.91722 10.4937 9.77415 10.3882 9.66866C10.2827 9.56317 10.1397 9.50391 9.99048 9.50391H9.61548ZM9.05298 7.44141C9.05298 7.29222 9.11224 7.14915 9.21773 7.04366C9.32322 6.93817 9.46629 6.87891 9.61548 6.87891H9.99048C10.1397 6.87891 10.2827 6.93817 10.3882 7.04366C10.4937 7.14915 10.553 7.29222 10.553 7.44141C10.553 7.59059 10.4937 7.73366 10.3882 7.83915C10.2827 7.94464 10.1397 8.00391 9.99048 8.00391H9.61548C9.46629 8.00391 9.32322 7.94464 9.21773 7.83915C9.11224 7.73366 9.05298 7.59059 9.05298 7.44141ZM9.61548 4.25391C9.46629 4.25391 9.32322 4.31317 9.21773 4.41866C9.11224 4.52415 9.05298 4.66722 9.05298 4.81641C9.05298 4.96559 9.11224 5.10866 9.21773 5.21415C9.32322 5.31964 9.46629 5.37891 9.61548 5.37891H9.99048C10.1397 5.37891 10.2827 5.31964 10.3882 5.21415C10.4937 5.10866 10.553 4.96559 10.553 4.81641C10.553 4.66722 10.4937 4.52415 10.3882 4.41866C10.2827 4.31317 10.1397 4.25391 9.99048 4.25391H9.61548Z" fill="#424242"/>
<path fill-rule="evenodd" clip-rule="evenodd" d="M0.869873 16.6017C0.869873 17.0225 1.03701 17.426 1.33451 17.7235C1.63201 18.021 2.03551 18.1881 2.45624 18.1881H5.43068C5.58845 18.1881 5.73976 18.1254 5.85132 18.0139C5.96289 17.9023 6.02556 17.751 6.02556 17.5932V15.8085H8.40511V17.5932C8.40511 17.9216 8.67162 18.1881 9 18.1881H11.9744C12.0474 18.1881 12.1196 18.1833 12.1902 18.1738C12.2334 18.1834 12.2776 18.1882 12.3218 18.1881H15.5438C15.9645 18.1881 16.368 18.021 16.6655 17.7235C16.963 17.426 17.1301 17.0225 17.1301 16.6017V10.5537C17.1301 10.3074 17.0728 10.0645 16.9627 9.84426C16.8525 9.62399 16.6926 9.43238 16.4956 9.28462L15.7024 8.68973C15.6399 8.64285 15.5688 8.60875 15.4931 8.58936C15.4174 8.56997 15.3387 8.56568 15.2613 8.57673C15.184 8.58778 15.1096 8.61395 15.0424 8.65375C14.9752 8.69355 14.9164 8.74621 14.8696 8.80871C14.8227 8.8712 14.7886 8.94232 14.7692 9.018C14.7498 9.09368 14.7455 9.17243 14.7566 9.24977C14.7676 9.3271 14.7938 9.40151 14.8336 9.46873C14.8734 9.53595 14.926 9.59468 14.9885 9.64155L15.7817 10.2364C15.831 10.2734 15.8709 10.3213 15.8985 10.3763C15.926 10.4314 15.9404 10.4921 15.9404 10.5537V16.6017C15.9404 16.7069 15.8986 16.8078 15.8242 16.8822C15.7498 16.9565 15.6489 16.9983 15.5438 16.9983H13.5108C13.5434 16.8714 13.5608 16.739 13.5608 16.6017V3.11762C13.5608 2.69689 13.3937 2.29339 13.0962 1.99589C12.7987 1.69838 12.3952 1.53125 11.9744 1.53125H2.45624C2.03551 1.53125 1.63201 1.69838 1.33451 1.99589C1.03701 2.29339 0.869873 2.69689 0.869873 3.11762V16.6017ZM2.45624 16.9983C2.35106 16.9983 2.25018 16.9565 2.17581 16.8822C2.10143 16.8078 2.05965 16.7069 2.05965 16.6017V3.11762C2.05965 3.01243 2.10143 2.91156 2.17581 2.83718C2.25018 2.76281 2.35106 2.72102 2.45624 2.72102H11.9744C12.0796 2.72102 12.1805 2.76281 12.2549 2.83718C12.3292 2.91156 12.371 3.01243 12.371 3.11762V16.6017C12.371 16.7069 12.3292 16.8078 12.2549 16.8822C12.1805 16.9565 12.0796 16.9983 11.9744 16.9983H9.59489V15.2137C9.59489 15.0559 9.53221 14.9046 9.42065 14.793C9.30908 14.6814 9.15777 14.6188 9 14.6188H5.43068C5.2729 14.6188 5.12159 14.6814 5.01003 14.793C4.89846 14.9046 4.83579 15.0559 4.83579 15.2137V16.9983H2.45624Z" fill="#424242"/>
</g>
<defs>
<clipPath id="clip0_527_1832">
<rect width="18" height="18" fill="white" transform="translate(0 0.859375)"/>
</clipPath>
</defs>
</svg>
