<svg width="196" height="197" viewBox="0 0 196 197" fill="none" xmlns="http://www.w3.org/2000/svg">
<path d="M46.1143 11.7539L20.1875 46.323V167.315C20.1875 171.899 22.0085 176.296 25.25 179.537C28.4915 182.779 32.8879 184.6 37.4721 184.6H158.464C163.048 184.6 167.445 182.779 170.686 179.537C173.928 176.296 175.749 171.899 175.749 167.315V46.323L149.822 11.7539H46.1143Z" stroke="#BBBBBB" stroke-width="6" stroke-linecap="round" stroke-linejoin="round"/>
<path d="M24.5 49.1992H171.5" stroke="#BBBBBB" stroke-width="6" stroke-linecap="round" stroke-linejoin="round"/>
<path d="M130.693 149.51C130.693 140.846 127.251 132.537 121.125 126.411C114.999 120.285 106.69 116.843 98.026 116.843C89.3623 116.843 81.0534 120.285 74.9272 126.411C68.801 132.537 65.3594 140.846 65.3594 149.51" stroke="#BBBBBB" stroke-width="6" stroke-linecap="round" stroke-linejoin="round"/>
<ellipse cx="65.332" cy="84.9396" rx="11.2305" ry="13.2599" fill="#BBBBBB"/>
<ellipse cx="130.668" cy="84.9396" rx="11.2305" ry="13.2599" fill="#BBBBBB"/>
</svg>
