<svg class="icon icon-cart" width="22" height="23" viewBox="0 0 22 23" fill="none" xmlns="http://www.w3.org/2000/svg">
    <g clip-path="url(#clip0_217_66)">
        <path d="M5.17578 1.79688L2.26562 5.67708V19.2578C2.26563 19.7724 2.47003 20.2658 2.83387 20.6297C3.19771 20.9935 3.69118 21.1979 4.20573 21.1979H17.7865C18.301 21.1979 18.7945 20.9935 19.1583 20.6297C19.5222 20.2658 19.7266 19.7724 19.7266 19.2578V5.67708L16.8164 1.79688H5.17578Z" stroke="#424242" stroke-width="2" stroke-linecap="round" stroke-linejoin="round"/>
        <path d="M2.75 6H19.25" stroke="#424242" stroke-width="2" stroke-linecap="round" stroke-linejoin="round"/>
        <path d="M14.6693 9.66406C14.6693 10.6365 14.283 11.5692 13.5953 12.2568C12.9077 12.9444 11.9751 13.3307 11.0026 13.3307C10.0301 13.3307 9.09751 12.9444 8.40988 12.2568C7.72225 11.5692 7.33594 10.6365 7.33594 9.66406" stroke="#424242" stroke-width="2" stroke-linecap="round" stroke-linejoin="round"/>
    </g>
<defs>
    <clipPath id="clip0_217_66">
    <rect width="22" height="22" fill="white" transform="translate(0 0.5)"/>
    </clipPath>
</defs>
</svg>