<svg width="20" height="16" viewBox="0 0 20 16" fill="none" xmlns="http://www.w3.org/2000/svg">
<path d="M19.9484 2.2466C19.8582 1.79246 19.6568 1.37688 19.3756 1.03355C19.3163 0.95875 19.2544 0.891758 19.1872 0.824766C18.689 0.324062 17.9897 0.0117188 17.2257 0.0117188H2.77426C2.01031 0.0117188 1.31352 0.324062 0.81293 0.824766C0.745938 0.891758 0.683984 0.95875 0.624531 1.03355C0.343164 1.37684 0.141797 1.79246 0.0541406 2.2466C0.018125 2.42188 0 2.60301 0 2.78613V12.9359C0 13.3252 0.0825781 13.6995 0.229844 14.0375C0.366445 14.3602 0.567852 14.6521 0.812891 14.897C0.875 14.9589 0.93668 15.0159 1.00398 15.0725C1.48391 15.47 2.1034 15.71 2.77426 15.71H17.2257C17.8968 15.71 18.519 15.47 18.9962 15.07C19.0633 15.0159 19.1253 14.9589 19.1872 14.897C19.4321 14.6521 19.6335 14.3602 19.7729 14.0375V14.035C19.9202 13.697 20 13.3252 20 12.9359V2.78613C20 2.60301 19.9821 2.42188 19.9484 2.2466ZM1.81676 1.82848C2.06461 1.5809 2.39746 1.43102 2.77426 1.43102H17.2257C17.6025 1.43102 17.9383 1.5809 18.1832 1.82848C18.2271 1.87258 18.2684 1.92172 18.3048 1.97055L10.7303 8.57191C10.5214 8.755 10.2634 8.84543 10 8.84543C9.7393 8.84543 9.48141 8.755 9.26973 8.57191L1.69813 1.96773C1.73164 1.91891 1.77293 1.87258 1.81676 1.82848ZM1.4193 12.9359V3.43645L6.9007 8.21828L1.42207 12.995C1.4193 12.9769 1.4193 12.9565 1.4193 12.9359ZM17.2257 14.2904H2.77426C2.52891 14.2904 2.29934 14.2259 2.1034 14.1126L7.88379 9.07516L8.42344 9.54461C8.87504 9.93703 9.44016 10.1358 10 10.1358C10.5627 10.1358 11.1278 9.93703 11.5794 9.54461L12.1187 9.07516L17.8969 14.1126C17.7007 14.2259 17.4711 14.2904 17.2257 14.2904ZM18.5807 12.9359C18.5807 12.9565 18.5807 12.9769 18.578 12.995L13.0995 8.22106L18.5807 3.43898V12.9359Z" fill="#424242"/>
</svg>
