<svg width="24" height="24" viewBox="0 0 24 24" fill="none" xmlns="http://www.w3.org/2000/svg">
<path d="M17.7429 22.1967C17.495 22.1967 17.2931 21.9955 17.2931 21.7476V14.9218C17.2931 12.4539 16.0266 12.4539 15.5491 12.4539C14.2188 12.4539 13.5452 13.2841 13.5452 14.9218V21.7483C13.5452 21.9963 13.344 22.1974 13.0961 22.1974H9.23621C8.98828 22.1974 8.78711 21.9963 8.78711 21.7483V8.74493C8.78711 8.497 8.98828 8.29583 9.23621 8.29583H13.0968C13.3447 8.29583 13.5459 8.497 13.5459 8.74493V9.22945L13.7782 9.03748C14.692 8.28166 15.7822 7.89844 17.0183 7.89844C18.5462 7.89844 19.8326 8.3865 20.7379 9.31091C21.6942 10.287 22.1992 11.7406 22.1992 13.5136V21.7483C22.1992 21.9963 21.9973 22.1974 21.7494 22.1974L17.7429 22.1967ZM15.5498 11.5543C16.5373 11.5543 18.1934 11.9921 18.1934 14.9218V21.2985H21.2996V13.5136C21.2996 10.5165 19.7391 8.79806 17.0183 8.79806C14.5886 8.79806 13.536 10.6327 13.492 10.7106C13.4127 10.8544 13.2625 10.9437 13.0989 10.9437C13.0621 10.9437 13.0245 10.938 12.9863 10.9288C12.7865 10.8785 12.647 10.7007 12.647 10.4967V9.19545H9.68602V21.2992H12.647V14.9218C12.647 12.8131 13.7322 11.5543 15.5498 11.5543Z" fill="white"/>
<path d="M2.63536 22.1978C2.38743 22.1978 2.18555 21.9966 2.18555 21.7487V8.74598C2.18555 8.49805 2.38743 8.29688 2.63536 8.29688H6.66239C6.91032 8.29688 7.11149 8.49805 7.11149 8.74598V21.7487C7.11149 21.9966 6.91032 22.1978 6.66239 22.1978H2.63536ZM3.08517 21.2996H6.21258V9.19579H3.08517V21.2996Z" fill="white"/>
<path d="M4.63015 7.4914C3.06892 7.4914 1.79883 6.21422 1.79883 4.64449C1.79883 3.07405 3.06892 1.79688 4.63015 1.79688C6.18925 1.79688 7.45864 3.07476 7.45864 4.6452C7.45864 6.21422 6.18925 7.4914 4.63015 7.4914ZM4.63015 2.69366C3.56477 2.69366 2.69845 3.56849 2.69845 4.64449C2.69845 5.71978 3.56477 6.59319 4.63015 6.59319C5.69482 6.59319 6.56044 5.71978 6.56044 4.64449C6.55973 3.5692 5.69482 2.69366 4.63015 2.69366Z" fill="white"/>
</svg>
