<svg width="22" height="22" viewBox="0 0 22 22" fill="none" xmlns="http://www.w3.org/2000/svg">
<path d="M16.7429 21.1967C16.495 21.1967 16.2931 20.9955 16.2931 20.7476V13.9218C16.2931 11.4539 15.0266 11.4539 14.5491 11.4539C13.2188 11.4539 12.5452 12.2841 12.5452 13.9218V20.7483C12.5452 20.9963 12.344 21.1974 12.0961 21.1974H8.23621C7.98828 21.1974 7.78711 20.9963 7.78711 20.7483V7.74493C7.78711 7.497 7.98828 7.29583 8.23621 7.29583H12.0968C12.3447 7.29583 12.5459 7.497 12.5459 7.74493V8.22945L12.7782 8.03748C13.692 7.28166 14.7822 6.89844 16.0183 6.89844C17.5462 6.89844 18.8326 7.3865 19.7379 8.31091C20.6942 9.28703 21.1992 10.7406 21.1992 12.5136V20.7483C21.1992 20.9963 20.9973 21.1974 20.7494 21.1974L16.7429 21.1967ZM14.5498 10.5543C15.5373 10.5543 17.1934 10.9921 17.1934 13.9218V20.2985H20.2996V12.5136C20.2996 9.51654 18.7391 7.79806 16.0183 7.79806C13.5886 7.79806 12.536 9.63271 12.492 9.71063C12.4127 9.85443 12.2625 9.94368 12.0989 9.94368C12.0621 9.94368 12.0245 9.93802 11.9863 9.92881C11.7865 9.87852 11.647 9.70072 11.647 9.49671V8.19545H8.68602V20.2992H11.647V13.9218C11.647 11.8131 12.7322 10.5543 14.5498 10.5543Z"/>
<path d="M1.63536 21.1978C1.38743 21.1978 1.18555 20.9966 1.18555 20.7487V7.74598C1.18555 7.49805 1.38743 7.29688 1.63536 7.29688H5.66239C5.91032 7.29688 6.11149 7.49805 6.11149 7.74598V20.7487C6.11149 20.9966 5.91032 21.1978 5.66239 21.1978H1.63536ZM2.08517 20.2996H5.21258V8.19579H2.08517V20.2996Z"/>
<path d="M3.63015 6.4914C2.06892 6.4914 0.798828 5.21422 0.798828 3.64449C0.798828 2.07405 2.06892 0.796875 3.63015 0.796875C5.18925 0.796875 6.45864 2.07476 6.45864 3.6452C6.45864 5.21422 5.18925 6.4914 3.63015 6.4914ZM3.63015 1.69366C2.56477 1.69366 1.69845 2.56849 1.69845 3.64449C1.69845 4.71978 2.56477 5.59319 3.63015 5.59319C4.69482 5.59319 5.56044 4.71978 5.56044 3.64449C5.55973 2.5692 4.69482 1.69366 3.63015 1.69366Z"/>
</svg>