<svg width="18" height="16" viewBox="0 0 18 16" fill="none" xmlns="http://www.w3.org/2000/svg">
<path d="M7.7262 10.0754L2.93009 15.5H1.52098L7.1939 9.08191L7.46766 8.77219L7.21494 8.44508L1.07672 0.5H5.4696L9.22623 5.4162L9.59546 5.89939L9.99817 5.44373L14.3674 0.5H15.7748L10.5188 6.4463L10.2465 6.75435L10.4962 7.08102L16.9296 15.5H12.6683L8.49644 10.1008L8.12672 9.62237L7.7262 10.0754ZM12.784 14.6811L12.9341 14.8754H13.1796H14.699H15.7103L15.0963 14.0718L5.28849 1.23571L5.1384 1.03928H4.89119H3.2607H2.24245L2.86506 1.84501L12.784 14.6811Z" fill="#424242" stroke="white"/>
</svg>
