<svg width="24" height="24" viewBox="0 0 24 24" fill="none" xmlns="http://www.w3.org/2000/svg">
<mask id="path-1-inside-1_497_23548" fill="white">
<path d="M18.8892 3.59766H5.11298C2.60485 3.59766 0.564453 5.64458 0.564453 8.16018V15.8395C0.564453 18.3556 2.60485 20.4021 5.11298 20.4021H18.8892C21.3974 20.4021 23.4378 18.3551 23.4378 15.8395V8.16018C23.4378 5.64458 21.3974 3.59766 18.8892 3.59766ZM22.5042 15.84C22.5042 17.8412 20.8825 19.4689 18.8892 19.4689H5.11298C3.11973 19.4689 1.49806 17.8407 1.49806 15.84V8.16018C1.49806 6.15947 3.11973 4.53126 5.11298 4.53126H18.8892C20.8825 4.53126 22.5042 6.15947 22.5042 8.16018V15.84Z"/>
</mask>
<path d="M18.8892 3.59766H5.11298C2.60485 3.59766 0.564453 5.64458 0.564453 8.16018V15.8395C0.564453 18.3556 2.60485 20.4021 5.11298 20.4021H18.8892C21.3974 20.4021 23.4378 18.3551 23.4378 15.8395V8.16018C23.4378 5.64458 21.3974 3.59766 18.8892 3.59766ZM22.5042 15.84C22.5042 17.8412 20.8825 19.4689 18.8892 19.4689H5.11298C3.11973 19.4689 1.49806 17.8407 1.49806 15.84V8.16018C1.49806 6.15947 3.11973 4.53126 5.11298 4.53126H18.8892C20.8825 4.53126 22.5042 6.15947 22.5042 8.16018V15.84Z" fill="#424242"/>
<path d="M18.8892 -12.7289H5.11298V19.9242H18.8892V-12.7289ZM5.11298 -12.7289C-6.45992 -12.7289 -15.7621 -3.32436 -15.7621 8.16018H16.891C16.891 14.6135 11.6696 19.9242 5.11298 19.9242V-12.7289ZM-15.7621 8.16018V15.8395H16.891V8.16018H-15.7621ZM-15.7621 15.8395C-15.7621 27.3256 -6.45884 36.7286 5.11298 36.7286V4.07554C11.6685 4.07554 16.891 9.38558 16.891 15.8395H-15.7621ZM5.11298 36.7286H18.8892V4.07554H5.11298V36.7286ZM18.8892 36.7286C30.4621 36.7286 39.7643 27.3241 39.7643 15.8395H7.11124C7.11124 9.3862 12.3326 4.07554 18.8892 4.07554V36.7286ZM39.7643 15.8395V8.16018H7.11124V15.8395H39.7643ZM39.7643 8.16018C39.7643 -3.32436 30.4621 -12.7289 18.8892 -12.7289V19.9242C12.3326 19.9242 7.11124 14.6135 7.11124 8.16018H39.7643ZM6.17763 15.84C6.17763 8.88324 11.8068 3.14241 18.8892 3.14241V35.7955C29.9582 35.7955 38.8307 26.7992 38.8307 15.84H6.17763ZM18.8892 3.14241H5.11298V35.7955H18.8892V3.14241ZM5.11298 3.14241C12.1968 3.14241 17.8246 8.88415 17.8246 15.84H-14.8285C-14.8285 26.7973 -5.95736 35.7955 5.11298 35.7955V3.14241ZM17.8246 15.84V8.16018H-14.8285V15.84H17.8246ZM17.8246 8.16018C17.8246 15.116 12.1968 20.8578 5.11298 20.8578V-11.7953C-5.95736 -11.7953 -14.8285 -2.79711 -14.8285 8.16018H17.8246ZM5.11298 20.8578H18.8892V-11.7953H5.11298V20.8578ZM18.8892 20.8578C11.8054 20.8578 6.17763 15.116 6.17763 8.16018H38.8307C38.8307 -2.79711 29.9596 -11.7953 18.8892 -11.7953V20.8578ZM6.17763 8.16018V15.84H38.8307V8.16018H6.17763Z" fill="white" mask="url(#path-1-inside-1_497_23548)"/>
<mask id="path-3-inside-2_497_23548" fill="white">
<path d="M16.1369 11.8285L9.66933 8.04041C9.52556 7.95638 9.34677 7.95498 9.2016 8.03807C9.05642 8.12116 8.9668 8.27567 8.9668 8.44326V16.019C8.9668 16.1861 9.05642 16.3411 9.20113 16.4242C9.27302 16.4653 9.35331 16.4858 9.4336 16.4858C9.51529 16.4858 9.59651 16.4643 9.66933 16.4218L16.1369 12.6347C16.2797 12.5511 16.3679 12.3975 16.3679 12.2318C16.3679 12.0661 16.2802 11.9121 16.1369 11.8285ZM9.9004 15.2044V9.25736L14.9773 12.2314L9.9004 15.2044Z"/>
</mask>
<path d="M16.1369 11.8285L9.66933 8.04041C9.52556 7.95638 9.34677 7.95498 9.2016 8.03807C9.05642 8.12116 8.9668 8.27567 8.9668 8.44326V16.019C8.9668 16.1861 9.05642 16.3411 9.20113 16.4242C9.27302 16.4653 9.35331 16.4858 9.4336 16.4858C9.51529 16.4858 9.59651 16.4643 9.66933 16.4218L16.1369 12.6347C16.2797 12.5511 16.3679 12.3975 16.3679 12.2318C16.3679 12.0661 16.2802 11.9121 16.1369 11.8285ZM9.9004 15.2044V9.25736L14.9773 12.2314L9.9004 15.2044Z" fill="#424242"/>
<path d="M16.1369 11.8285L7.88546 25.9164L7.89936 25.9246L7.91327 25.9327L16.1369 11.8285ZM9.66933 8.04041L17.9208 -6.04752L17.914 -6.05149L17.9072 -6.05546L9.66933 8.04041ZM9.20113 16.4242L1.07141 30.5827L1.08615 30.5911L1.10091 30.5996L9.20113 16.4242ZM9.66933 16.4218L17.8958 30.5244L17.9075 30.5175L17.9192 30.5107L9.66933 16.4218ZM16.1369 12.6347L7.89324 -1.45781L7.88697 -1.45414L16.1369 12.6347ZM9.9004 15.2044H-6.42613V43.6852L18.1507 29.293L9.9004 15.2044ZM9.9004 9.25736L18.1526 -4.8301L-6.42613 -19.228V9.25736H9.9004ZM14.9773 12.2314L23.2276 26.3199L47.2822 12.2336L23.2296 -1.8561L14.9773 12.2314ZM24.3883 -2.25942L17.9208 -6.04752L1.41791 22.1283L7.88546 25.9164L24.3883 -2.25942ZM17.9072 -6.05546C12.7471 -9.07111 6.33421 -9.13233 1.09156 -6.13172L17.3116 22.2079C12.3593 25.0423 6.30405 24.9839 1.43149 22.1363L17.9072 -6.05546ZM1.09156 -6.13172C-4.13846 -3.13833 -7.35973 2.42478 -7.35973 8.44326H25.2933C25.2933 14.1266 22.2513 19.3807 17.3116 22.2079L1.09156 -6.13172ZM-7.35973 8.44326V16.019H25.2933V8.44326H-7.35973ZM-7.35973 16.019C-7.35973 22.0216 -4.15339 27.5826 1.07141 30.5827L17.3309 2.26567C22.2662 5.09954 25.2933 10.3506 25.2933 16.019H-7.35973ZM1.10091 30.5996C3.69203 32.0802 6.57294 32.8123 9.4336 32.8123V0.159264C12.1337 0.159264 14.854 0.850295 17.3014 2.24878L1.10091 30.5996ZM9.4336 32.8123C12.3885 32.8123 15.311 32.0322 17.8958 30.5244L1.44287 2.31933C3.88204 0.896482 6.6421 0.159264 9.4336 0.159264V32.8123ZM17.9192 30.5107L24.3868 26.7235L7.88697 -1.45414L1.41942 2.33303L17.9192 30.5107ZM24.3805 26.7272C29.5252 23.7177 32.6945 18.2022 32.6945 12.2318H0.0414181C0.0414181 6.59284 3.03429 1.38452 7.89324 -1.45781L24.3805 26.7272ZM32.6945 12.2318C32.6945 6.30506 29.5616 0.756915 24.3605 -2.27567L7.91327 25.9327C2.99875 23.0672 0.0414181 17.8272 0.0414181 12.2318H32.6945ZM26.2269 15.2044V9.25736H-6.42613V15.2044H26.2269ZM1.64818 23.3448L6.72512 26.3188L23.2296 -1.8561L18.1526 -4.8301L1.64818 23.3448ZM6.72705 -1.85723L1.65011 1.11584L18.1507 29.293L23.2276 26.3199L6.72705 -1.85723Z" fill="white" mask="url(#path-3-inside-2_497_23548)"/>
</svg>
